Coordinates
version=1
nRows=20
nColumns=38
inDegrees=no

Units are S.I. units (second, meters, Newtons, ...)
If the header above contains a line with 'inDegrees', this indicates whether rotational values are in degrees (yes) or radians (no).

endheader
time	pelvis_tilt	pelvis_list	pelvis_rotation	pelvis_tx	pelvis_ty	pelvis_tz	hip_flexion_r	hip_adduction_r	hip_rotation_r	knee_angle_r	ankle_angle_r	subtalar_angle_r	mtp_angle_r	hip_flexion_l	hip_adduction_l	hip_rotation_l	knee_angle_l	ankle_angle_l	subtalar_angle_l	mtp_angle_l	lumbar_extension	lumbar_bending	lumbar_rotation	arm_flex_r	arm_add_r	arm_rot_r	elbow_flex_r	pro_sup_r	wrist_flex_r	wrist_dev_r	arm_flex_l	arm_add_l	arm_rot_l	elbow_flex_l	pro_sup_l	wrist_flex_l	wrist_dev_l
5	0.241411	1.02175	1.48707	0.655205	0.283	0.79442	1.45107	-0.192887	-0.0943097	1.40997	-0.0334905	0	0	1.46083	-0.526675	-0.135314	1.4541	-0.0385186	0	0	-0.530802	-0.0577795	0.0815773	1.06738	-0.570457	0.565378	0.892702	0.689192	0	0	1.10041	-0.246401	0.228658	0.80984	0.960078	0	0
5.01	0.241943	1.02476	1.48651	0.654838	0.283749	0.797572	1.44135	-0.191841	-0.0954653	1.40167	-0.0350024	0	0	1.45038	-0.524129	-0.137971	1.44599	-0.0391673	0	0	-0.529056	-0.0565788	0.0789874	1.06319	-0.563916	0.562136	0.878178	0.697707	0	0	1.092	-0.243831	0.210838	0.800424	0.981451	0	0
5.02	0.242525	1.02815	1.48569	0.654477	0.28455	0.80096	1.43078	-0.190562	-0.0968898	1.39266	-0.0366949	0	0	1.43902	-0.521833	-0.141026	1.43742	-0.0398837	0	0	-0.527591	-0.0552028	0.0769967	1.05748	-0.557852	0.557682	0.865602	0.704694	0	0	1.08261	-0.241062	0.191884	0.791324	1.00331	0	0
5.03	0.24345	1.03221	1.48451	0.654131	0.285382	0.80459	1.41899	-0.189023	-0.0986002	1.38292	-0.0385061	0	0	1.42657	-0.519644	-0.144202	1.42822	-0.0406912	0	0	-0.526955	-0.0535058	0.0753623	1.05053	-0.552455	0.551462	0.855319	0.709834	0	0	1.07238	-0.238209	0.171659	0.782856	1.02507	0	0
5.04	0.244734	1.03714	1.48313	0.653775	0.286235	0.808457	1.4058	-0.187433	-0.100552	1.37248	-0.0403818	0	0	1.41287	-0.517278	-0.14746	1.41834	-0.0416378	0	0	-0.52733	-0.0514428	0.0738716	1.04215	-0.547441	0.543294	0.847439	0.712621	0	0	1.06175	-0.235134	0.150267	0.77444	1.046	0	0
5.05	0.245991	1.04347	1.48178	0.65337	0.287151	0.812615	1.39101	-0.186444	-0.102686	1.36164	-0.0428931	0	0	1.39695	-0.514792	-0.151348	1.40772	-0.0426675	0	0	-0.529469	-0.0491433	0.0723497	1.03249	-0.543052	0.532448	0.84255	0.711557	0	0	1.05053	-0.231498	0.125907	0.766309	1.0704	0	0
5.06	0.246734	1.05025	1.48037	0.653005	0.288194	0.816978	1.37543	-0.184942	-0.104622	1.35046	-0.0454461	0	0	1.37955	-0.512812	-0.156206	1.39647	-0.0435534	0	0	-0.531895	-0.0477066	0.0714027	1.02129	-0.53913	0.520982	0.839351	0.708445	0	0	1.03909	-0.228157	0.103149	0.758104	1.09325	0	0
5.07	0.247339	1.05735	1.47862	0.652711	0.289313	0.821545	1.35907	-0.182649	-0.106294	1.33868	-0.0479887	0	0	1.3611	-0.511168	-0.161538	1.38453	-0.0443326	0	0	-0.53442	-0.0469524	0.0709763	1.00875	-0.535303	0.508818	0.837058	0.705677	0	0	1.02751	-0.225038	0.0816651	0.749626	1.11455	0	0
5.08	0.248282	1.06509	1.47688	0.652394	0.290433	0.826337	1.34165	-0.180557	-0.107971	1.32626	-0.0505956	0	0	1.34182	-0.508899	-0.166577	1.37204	-0.045168	0	0	-0.537411	-0.0461834	0.0704389	0.99541	-0.531928	0.496087	0.835448	0.702503	0	0	1.01596	-0.222204	0.0617036	0.740591	1.13467	0	0
5.09	0.249567	1.07368	1.47536	0.652002	0.291559	0.831365	1.32301	-0.179388	-0.109701	1.31323	-0.0536027	0	0	1.32146	-0.505862	-0.171246	1.35902	-0.0461192	0	0	-0.541353	-0.0448	0.069838	0.981468	-0.530817	0.485134	0.836317	0.69684	0	0	1.00444	-0.219678	0.0436518	0.731114	1.15412	0	0
5.1	0.251776	1.08473	1.47329	0.651541	0.292779	0.836911	1.30059	-0.178073	-0.112295	1.29907	-0.0570164	0	0	1.29759	-0.50241	-0.175877	1.34461	-0.0472301	0	0	-0.547824	-0.0434755	0.0695044	0.967532	-0.529724	0.474363	0.83628	0.688915	0	0	0.99392	-0.216222	0.0254606	0.71986	1.17733	0	0
5.11	0.254199	1.09689	1.47091	0.651068	0.294032	0.842719	1.27655	-0.176329	-0.115453	1.28488	-0.0600031	0	0	1.27202	-0.49911	-0.18107	1.32991	-0.0481736	0	0	-0.554988	-0.0427636	0.0697562	0.953583	-0.529519	0.465965	0.834693	0.685333	0	0	0.984049	-0.212024	0.00779271	0.707158	1.20484	0	0
5.12	0.255728	1.10775	1.46936	0.650596	0.295284	0.848416	1.25409	-0.175038	-0.118038	1.27039	-0.0626603	0	0	1.24765	-0.495259	-0.186345	1.31486	-0.0488336	0	0	-0.559925	-0.0422987	0.0697066	0.938412	-0.528457	0.457718	0.831819	0.688731	0	0	0.973104	-0.209499	-0.00531135	0.695014	1.22812	0	0
5.13	0.256944	1.11838	1.46824	0.650103	0.296557	0.854161	1.23183	-0.174383	-0.120458	1.25538	-0.0658705	0	0	1.22332	-0.490893	-0.191629	1.29907	-0.0497265	0	0	-0.564033	-0.0417958	0.0691975	0.922754	-0.526004	0.448468	0.827212	0.695656	0	0	0.961593	-0.208526	-0.0145985	0.683149	1.25053	0	0
5.14	0.258273	1.12889	1.46721	0.649614	0.297849	0.859996	1.20923	-0.173812	-0.123433	1.23981	-0.0693034	0	0	1.19888	-0.48611	-0.196767	1.28251	-0.0511904	0	0	-0.567556	-0.0410138	0.0686792	0.906286	-0.522763	0.43875	0.821845	0.705575	0	0	0.950007	-0.208172	-0.0215057	0.670944	1.27315	0	0
5.15	0.259943	1.13974	1.46589	0.649135	0.299178	0.865934	1.18575	-0.172907	-0.126814	1.22367	-0.0725319	0	0	1.17373	-0.481284	-0.201907	1.26532	-0.052857	0	0	-0.571246	-0.0400991	0.0682566	0.889253	-0.518965	0.42884	0.816111	0.717091	0	0	0.938165	-0.207988	-0.0279241	0.659302	1.2978	0	0
5.16	0.261777	1.1508	1.46433	0.648641	0.300551	0.871935	1.16172	-0.171484	-0.129699	1.20708	-0.0755329	0	0	1.14799	-0.476454	-0.207077	1.24765	-0.0544812	0	0	-0.574926	-0.0392329	0.0678331	0.872069	-0.514136	0.418185	0.809236	0.727035	0	0	0.925812	-0.20735	-0.0366053	0.648449	1.32406	0	0
5.17	0.263951	1.16215	1.46241	0.648131	0.301973	0.878016	1.13726	-0.170149	-0.132507	1.19035	-0.0787371	0	0	1.12168	-0.471571	-0.21226	1.22951	-0.0561809	0	0	-0.578728	-0.0383852	0.0673633	0.854898	-0.50841	0.407716	0.801333	0.735377	0	0	0.912992	-0.206102	-0.0479558	0.638183	1.35049	0	0
5.18	0.266113	1.17237	1.46031	0.647671	0.303381	0.883988	1.1139	-0.168555	-0.135812	1.17353	-0.0814587	0	0	1.09673	-0.466679	-0.216968	1.2113	-0.0579519	0	0	-0.581234	-0.0374751	0.0670825	0.836914	-0.502714	0.397624	0.794262	0.74098	0	0	0.899106	-0.205239	-0.0582776	0.629253	1.37032	0	0
5.19	0.27077	1.18761	1.45587	0.647198	0.304937	0.890666	1.084	-0.167187	-0.140528	1.15513	-0.0861334	0	0	1.06562	-0.462183	-0.222016	1.19201	-0.0603224	0	0	-0.589101	-0.0356978	0.0668304	0.819578	-0.492995	0.379137	0.784045	0.778876	0	0	0.886622	-0.207784	-0.0551265	0.6194	1.3647	0	0
